<?xml version="1.0" encoding="UTF-8"?>
<svg xmlns="http://www.w3.org/2000/svg" xmlns:xlink="http://www.w3.org/1999/xlink" width="25px" height="17px" viewBox="0 0 25 17" version="1.1">
<g id="surface1">
<path style=" stroke:none;fill-rule:evenodd;fill:rgb(5.098039%,70.980392%,35.686275%);fill-opacity:1;" d="M 2.511719 11.367188 C 2.113281 10.488281 1.917969 9.457031 1.917969 8.5 C 1.917969 7.714844 2.042969 6.9375 2.292969 6.195312 C 2.925781 4.308594 4.285156 2.785156 5.921875 1.742188 C 7.769531 0.566406 9.953125 0 12.121094 0 C 14.289062 0 16.472656 0.566406 18.320312 1.742188 C 19.957031 2.785156 21.3125 4.304688 21.949219 6.191406 C 21.964844 6.230469 21.976562 6.265625 21.984375 6.296875 C 21.992188 6.316406 22 6.335938 22.003906 6.351562 L 22.097656 6.683594 C 22.191406 7.023438 21.996094 7.378906 21.664062 7.476562 C 21.332031 7.574219 20.984375 7.378906 20.890625 7.035156 L 20.769531 6.601562 C 20.238281 5.039062 19.09375 3.769531 17.746094 2.890625 C 16.078125 1.800781 14.085938 1.285156 12.121094 1.285156 C 10.15625 1.285156 8.164062 1.800781 6.496094 2.890625 C 5.074219 3.820312 3.890625 5.179688 3.402344 6.863281 C 3.25 7.394531 3.167969 7.941406 3.167969 8.5 C 3.167969 9.425781 3.390625 10.316406 3.792969 11.144531 C 3.898438 11.355469 3.878906 11.609375 3.75 11.800781 L 3.746094 11.804688 L 2.085938 14.1875 L 5.269531 13.46875 C 5.453125 13.429688 5.648438 13.472656 5.792969 13.59375 C 7.570312 15.03125 9.875 15.710938 12.121094 15.710938 C 13.007812 15.710938 13.902344 15.605469 14.765625 15.390625 L 15.757812 15.035156 C 16.082031 14.917969 16.441406 15.09375 16.554688 15.425781 C 16.671875 15.761719 16.5 16.128906 16.175781 16.246094 C 15.925781 16.34375 15.5625 16.519531 15.3125 16.574219 C 14.273438 16.855469 13.195312 16.996094 12.121094 16.996094 C 9.691406 16.996094 7.226562 16.28125 5.261719 14.792969 L 0.761719 15.804688 C 0.507812 15.863281 0.25 15.753906 0.105469 15.527344 C -0.0390625 15.304688 -0.0351562 15.019531 0.117188 14.800781 Z M 15.953125 5.605469 L 8.289062 5.605469 C 7.945312 5.605469 7.664062 5.316406 7.664062 4.964844 C 7.664062 4.609375 7.945312 4.320312 8.289062 4.320312 L 15.953125 4.320312 C 16.296875 4.320312 16.578125 4.609375 16.578125 4.964844 C 16.578125 5.316406 16.296875 5.605469 15.953125 5.605469 Z M 12.121094 8.746094 L 8.289062 8.746094 C 7.945312 8.746094 7.664062 8.460938 7.664062 8.105469 C 7.664062 7.75 7.945312 7.464844 8.289062 7.464844 L 12.121094 7.464844 C 12.46875 7.464844 12.746094 7.75 12.746094 8.105469 C 12.746094 8.460938 12.46875 8.746094 12.121094 8.746094 Z M 13.652344 11.890625 L 8.289062 11.890625 C 7.945312 11.890625 7.664062 11.601562 7.664062 11.246094 C 7.664062 10.894531 7.945312 10.605469 8.289062 10.605469 L 13.652344 10.605469 C 14 10.605469 14.28125 10.894531 14.28125 11.246094 C 14.28125 11.601562 14 11.890625 13.652344 11.890625 Z M 24.386719 7.71875 C 24.3125 7.71875 24.21875 7.734375 24.125 7.765625 C 21.511719 8.726562 19.332031 11.042969 18.378906 13.6875 C 17.808594 12.996094 17.132812 12.445312 16.285156 12.003906 C 16.164062 11.941406 16.054688 11.910156 15.933594 11.910156 C 15.535156 11.910156 15.222656 12.25 15.179688 12.605469 L 15.179688 12.777344 C 15.203125 12.96875 15.316406 13.148438 15.550781 13.261719 C 16.71875 13.863281 17.441406 14.679688 18.023438 15.847656 C 18.148438 16.082031 18.410156 16.210938 18.652344 16.210938 C 18.976562 16.210938 19.300781 16.019531 19.359375 15.675781 C 19.808594 12.902344 21.851562 10.144531 24.511719 9.167969 C 25.308594 8.898438 25.078125 7.71875 24.386719 7.71875 Z M 24.386719 7.71875 "/>
</g>
</svg>
