<?xml version="1.0" encoding="UTF-8"?>
<svg xmlns="http://www.w3.org/2000/svg" xmlns:xlink="http://www.w3.org/1999/xlink" width="25px" height="25px" viewBox="0 0 25 25" version="1.1">
<g id="surface1">
<path style=" stroke:none;fill-rule:nonzero;fill:rgb(6.27451%,30.196078%,50.980392%);fill-opacity:1;" d="M 13.289062 12.175781 C 13.453125 12.285156 13.691406 12.238281 13.796875 12.078125 L 18.191406 5.609375 C 18.304688 5.441406 18.261719 5.214844 18.09375 5.101562 C 17.925781 4.988281 17.699219 5.03125 17.585938 5.199219 L 13.195312 11.667969 C 13.078125 11.835938 13.125 12.0625 13.289062 12.175781 Z M 13.289062 12.175781 "/>
<path style=" stroke:none;fill-rule:nonzero;fill:rgb(6.27451%,30.196078%,50.980392%);fill-opacity:1;" d="M 18.070312 12.238281 C 18.832031 12.238281 19.449219 11.480469 19.449219 10.542969 C 19.371094 8.292969 16.769531 8.292969 16.691406 10.542969 C 16.691406 11.480469 17.308594 12.238281 18.070312 12.238281 Z M 18.070312 9.578125 C 18.421875 9.578125 18.71875 10.019531 18.71875 10.542969 C 18.71875 11.066406 18.421875 11.507812 18.070312 11.507812 C 17.71875 11.507812 17.421875 11.066406 17.421875 10.542969 C 17.421875 10.019531 17.71875 9.578125 18.070312 9.578125 Z M 18.070312 9.578125 "/>
<path style=" stroke:none;fill-rule:nonzero;fill:rgb(6.27451%,30.196078%,50.980392%);fill-opacity:1;" d="M 14.636719 6.734375 C 14.636719 5.800781 14.015625 5.039062 13.257812 5.039062 C 11.425781 5.128906 11.429688 8.339844 13.257812 8.429688 C 14.015625 8.429688 14.636719 7.667969 14.636719 6.734375 Z M 12.609375 6.734375 C 12.609375 6.210938 12.90625 5.769531 13.257812 5.769531 C 13.609375 5.769531 13.90625 6.210938 13.90625 6.734375 C 13.90625 7.257812 13.609375 7.699219 13.257812 7.699219 C 12.90625 7.699219 12.609375 7.257812 12.609375 6.734375 Z M 12.609375 6.734375 "/>
<path style=" stroke:none;fill-rule:nonzero;fill:rgb(6.27451%,30.196078%,50.980392%);fill-opacity:1;" d="M 13.066406 16.859375 C 22.039062 19.535156 28.25 8.300781 21.265625 2.097656 C 21.109375 1.964844 20.878906 1.984375 20.75 2.136719 C 20.617188 2.289062 20.632812 2.519531 20.785156 2.652344 C 27.273438 8.429688 21.324219 18.808594 13.066406 16.089844 L 13.066406 13.605469 C 13.066406 13.292969 12.878906 12.851562 11.976562 12.527344 C 10.945312 12.160156 9.757812 12.128906 8.679688 12.28125 C 5.234375 5.550781 12.289062 -1.734375 19.105469 1.542969 C 19.289062 1.632812 19.507812 1.554688 19.59375 1.375 C 19.683594 1.195312 19.609375 0.976562 19.425781 0.886719 C 12.074219 -2.65625 4.390625 5.089844 7.941406 12.429688 C 7.832031 12.460938 7.726562 12.492188 7.625 12.527344 C 6.722656 12.851562 6.535156 13.292969 6.535156 13.605469 L 6.535156 16.039062 C 5.789062 15.6875 4.988281 15.574219 4 15.558594 C 3.519531 15.578125 3.519531 16.273438 4 16.292969 C 4.734375 16.292969 5.417969 16.390625 5.925781 16.574219 C 6.429688 16.753906 6.535156 16.933594 6.535156 16.960938 C 6.535156 16.988281 6.429688 17.171875 5.925781 17.351562 C 4.761719 17.765625 3.230469 17.765625 2.070312 17.351562 C 1.566406 17.171875 1.460938 16.988281 1.460938 16.960938 C 1.460938 16.929688 1.589844 16.71875 2.199219 16.53125 C 2.65625 16.371094 2.449219 15.703125 1.980469 15.832031 C 0.945312 16.15625 0.730469 16.625 0.730469 16.960938 L 0.730469 23.570312 C 0.730469 23.882812 0.917969 24.324219 1.824219 24.644531 C 3.144531 25.117188 4.851562 25.117188 6.171875 24.644531 C 6.5 24.527344 6.734375 24.394531 6.898438 24.257812 C 7.0625 24.394531 7.296875 24.527344 7.625 24.644531 C 8.949219 25.117188 10.65625 25.117188 11.976562 24.644531 C 12.304688 24.527344 12.539062 24.394531 12.703125 24.257812 C 12.867188 24.394531 13.101562 24.527344 13.429688 24.644531 C 14.75 25.117188 16.457031 25.117188 17.777344 24.644531 C 18.683594 24.324219 18.871094 23.882812 18.871094 23.570312 L 18.871094 20.265625 C 18.871094 19.953125 18.683594 19.511719 17.777344 19.1875 C 16.457031 18.71875 14.75 18.71875 13.429688 19.1875 C 13.292969 19.238281 13.171875 19.289062 13.066406 19.34375 C 13.066406 18.867188 13.070312 17.453125 13.066406 16.953125 C 13.066406 16.941406 13.066406 16.875 13.066406 16.859375 Z M 18.140625 21.917969 C 18.140625 21.945312 18.035156 22.125 17.53125 22.304688 C 16.371094 22.722656 14.839844 22.722656 13.675781 22.304688 C 13.171875 22.125 13.066406 21.945312 13.066406 21.917969 L 13.066406 21.1875 C 13.171875 21.242188 13.292969 21.292969 13.429688 21.34375 C 14.75 21.8125 16.457031 21.8125 17.777344 21.34375 C 17.914062 21.292969 18.035156 21.242188 18.140625 21.1875 Z M 12.335938 15.257812 C 12.335938 15.285156 12.230469 15.464844 11.730469 15.644531 C 10.566406 16.0625 9.035156 16.0625 7.871094 15.644531 C 7.371094 15.464844 7.265625 15.285156 7.265625 15.257812 L 7.265625 14.527344 C 7.371094 14.582031 7.488281 14.632812 7.625 14.683594 C 8.949219 15.152344 10.65625 15.152344 11.976562 14.683594 C 12.113281 14.632812 12.230469 14.582031 12.335938 14.527344 Z M 7.625 16.332031 C 9.074219 16.839844 10.9375 16.824219 12.335938 16.179688 L 12.335938 16.933594 C 12.335938 16.964844 12.230469 17.144531 11.730469 17.324219 C 10.566406 17.738281 9.035156 17.738281 7.871094 17.324219 C 7.371094 17.144531 7.265625 16.964844 7.265625 16.933594 L 7.265625 16.179688 C 7.371094 16.234375 7.488281 16.285156 7.625 16.332031 Z M 6.535156 20.265625 C 6.535156 20.292969 6.429688 20.476562 5.925781 20.652344 C 4.761719 21.070312 3.230469 21.070312 2.070312 20.652344 C 1.566406 20.476562 1.460938 20.292969 1.460938 20.265625 L 1.460938 19.535156 C 1.566406 19.589844 1.6875 19.640625 1.824219 19.691406 C 3.144531 20.160156 4.851562 20.160156 6.171875 19.691406 C 6.308594 19.640625 6.429688 19.589844 6.535156 19.535156 Z M 1.460938 21.1875 C 1.566406 21.242188 1.6875 21.292969 1.824219 21.34375 C 3.144531 21.8125 4.851562 21.8125 6.171875 21.34375 C 6.308594 21.292969 6.429688 21.242188 6.535156 21.1875 L 6.535156 21.917969 C 6.535156 21.945312 6.429688 22.125 5.925781 22.304688 C 4.761719 22.722656 3.230469 22.722656 2.070312 22.304688 C 1.566406 22.125 1.460938 21.945312 1.460938 21.917969 Z M 7.265625 21.1875 C 7.371094 21.242188 7.488281 21.292969 7.625 21.34375 C 8.949219 21.8125 10.65625 21.8125 11.976562 21.34375 C 12.113281 21.292969 12.230469 21.242188 12.335938 21.1875 L 12.335938 21.917969 C 12.335938 21.945312 12.230469 22.125 11.730469 22.304688 C 10.566406 22.722656 9.035156 22.722656 7.871094 22.304688 C 7.371094 22.125 7.265625 21.945312 7.265625 21.917969 Z M 11.730469 20.652344 C 10.566406 21.070312 9.035156 21.070312 7.871094 20.652344 C 7.371094 20.476562 7.265625 20.292969 7.265625 20.265625 L 7.265625 19.535156 C 7.371094 19.589844 7.488281 19.640625 7.625 19.691406 C 8.949219 20.160156 10.65625 20.160156 11.976562 19.691406 C 12.113281 19.640625 12.230469 19.589844 12.335938 19.535156 L 12.335938 20.265625 C 12.335938 20.292969 12.230469 20.476562 11.730469 20.652344 Z M 12.335938 18.613281 C 12.335938 18.640625 12.230469 18.824219 11.730469 19 C 10.566406 19.417969 9.035156 19.417969 7.871094 19 C 7.371094 18.824219 7.265625 18.640625 7.265625 18.613281 L 7.265625 17.859375 C 7.371094 17.910156 7.488281 17.964844 7.625 18.011719 C 8.949219 18.484375 10.65625 18.484375 11.976562 18.011719 C 12.113281 17.964844 12.230469 17.910156 12.335938 17.859375 Z M 7.871094 13.21875 C 9.035156 12.800781 10.566406 12.800781 11.730469 13.21875 C 12.230469 13.394531 12.335938 13.578125 12.335938 13.605469 C 12.335938 13.632812 12.230469 13.8125 11.730469 13.992188 C 10.566406 14.410156 9.035156 14.410156 7.871094 13.992188 C 7.371094 13.8125 7.265625 13.632812 7.265625 13.605469 C 7.265625 13.578125 7.371094 13.394531 7.871094 13.21875 Z M 1.824219 18.039062 C 3.269531 18.542969 5.132812 18.527344 6.535156 17.886719 L 6.535156 18.613281 C 6.535156 18.640625 6.429688 18.824219 5.925781 19 C 4.761719 19.417969 3.230469 19.417969 2.070312 19 C 1.566406 18.824219 1.460938 18.640625 1.460938 18.613281 L 1.460938 17.886719 C 1.566406 17.9375 1.6875 17.988281 1.824219 18.039062 Z M 5.925781 23.957031 C 4.761719 24.375 3.230469 24.371094 2.070312 23.957031 C 1.566406 23.777344 1.460938 23.597656 1.460938 23.570312 L 1.460938 22.839844 C 2.980469 23.523438 5.015625 23.523438 6.535156 22.839844 L 6.535156 23.570312 C 6.535156 23.597656 6.429688 23.777344 5.925781 23.957031 Z M 11.730469 23.957031 C 10.566406 24.375 9.035156 24.371094 7.871094 23.957031 C 7.371094 23.777344 7.265625 23.597656 7.265625 23.570312 L 7.265625 22.839844 C 8.785156 23.523438 10.820312 23.523438 12.335938 22.839844 L 12.335938 23.570312 C 12.335938 23.597656 12.230469 23.777344 11.730469 23.957031 Z M 17.53125 23.957031 C 16.371094 24.375 14.839844 24.371094 13.675781 23.957031 C 13.171875 23.777344 13.066406 23.597656 13.066406 23.570312 L 13.066406 22.839844 C 14.585938 23.523438 16.621094 23.523438 18.140625 22.839844 L 18.140625 23.570312 C 18.140625 23.597656 18.035156 23.777344 17.53125 23.957031 Z M 13.675781 19.878906 C 14.839844 19.460938 16.371094 19.460938 17.53125 19.878906 C 18.035156 20.054688 18.140625 20.238281 18.140625 20.265625 C 18.140625 20.292969 18.035156 20.476562 17.53125 20.652344 C 16.371094 21.070312 14.839844 21.070312 13.675781 20.652344 C 13.171875 20.476562 13.066406 20.292969 13.066406 20.265625 C 13.066406 20.238281 13.171875 20.054688 13.675781 19.878906 Z M 13.675781 19.878906 "/>
</g>
</svg>
