<svg width="20" height="20" viewBox="0 0 20 20" fill="none" xmlns="http://www.w3.org/2000/svg">
<path d="M15.9031 18.125H14.5312V13.925C14.5315 13.0827 14.2807 12.2595 13.8109 11.5604C13.3412 10.8613 12.6737 10.318 11.8937 10C12.6717 9.67919 13.3373 9.13527 13.8067 8.43679C14.2761 7.73831 14.5282 6.91652 14.5312 6.075V1.875H15.9044C15.9863 1.87363 16.0645 1.8401 16.122 1.78165C16.1795 1.72319 16.2117 1.64449 16.2117 1.5625C16.2117 1.48051 16.1795 1.40181 16.122 1.34335C16.0645 1.2849 15.9863 1.25137 15.9044 1.25C15.9044 1.25 5.10756 1.25348 4.0956 1.25C4.0138 1.25164 3.93591 1.28529 3.87864 1.34372C3.82138 1.40215 3.7893 1.4807 3.78931 1.56252C3.78931 1.64433 3.82139 1.72288 3.87867 1.7813C3.93594 1.83973 4.01384 1.87337 4.09563 1.875H5.46875V6.075C5.46727 6.91798 5.71792 7.74214 6.18847 8.44156C6.65902 9.14099 7.32798 9.68372 8.10937 10C7.33096 10.3205 6.66482 10.8643 6.19491 11.5628C5.725 12.2612 5.47233 13.0832 5.46875 13.925V18.125H4.09687C4.01399 18.125 3.93451 18.1579 3.8759 18.2165C3.8173 18.2751 3.78437 18.3546 3.78437 18.4375C3.78437 18.5204 3.8173 18.5999 3.8759 18.6585C3.93451 18.7171 4.01399 18.75 4.09687 18.75C5.06212 18.7408 15.9031 18.75 15.9031 18.75C15.985 18.7485 16.0631 18.715 16.1205 18.6565C16.1779 18.5981 16.2101 18.5194 16.2101 18.4375C16.2101 18.3556 16.1779 18.2769 16.1205 18.2185C16.0631 18.16 15.985 18.1265 15.9031 18.125ZM13.9062 1.875V6.01875C13.2948 5.68356 12.624 5.47024 11.9312 5.39062C11.2315 5.27947 10.5167 5.30815 9.82812 5.475C9.20834 5.62666 8.56454 5.65322 7.93437 5.55313C7.28611 5.47975 6.65972 5.2745 6.09375 4.95V1.875H13.9062ZM6.09375 13.925C6.09651 13.1389 6.3546 12.3749 6.82917 11.7482C7.30373 11.1214 7.96907 10.6658 8.725 10.45C8.87683 11.0008 9.06047 11.5423 9.275 12.0719C9.32258 12.1841 9.40221 12.2799 9.50393 12.3472C9.60564 12.4144 9.72493 12.4502 9.84687 12.45C9.96881 12.4502 10.0882 12.4149 10.1903 12.3483C10.2924 12.2817 10.3729 12.1867 10.4219 12.075C10.649 11.561 10.9316 10.86 11.1406 10.4125C11.9294 10.6018 12.6313 11.0514 13.1331 11.6887C13.6349 12.326 13.9073 13.1139 13.9062 13.925V18.125C13.1867 16.6538 12.0163 15.4506 10.5656 14.6907C10.3771 14.5858 10.1675 14.5247 9.95226 14.5117C9.737 14.4987 9.52157 14.5342 9.32187 14.6156C7.32895 15.4401 6.46966 17.2382 6.09377 18.125L6.09375 13.925Z" fill="#FF974A"/>
</svg>
