<svg width="23" height="24" viewBox="0 0 23 24" fill="none" xmlns="http://www.w3.org/2000/svg">
<path d="M22.2346 11.5753C21.993 9.05618 20.9234 6.68818 19.1929 4.84167C17.4624 2.99516 15.1687 1.77428 12.6705 1.36999L13.5674 0.714539C13.6098 0.68426 13.6457 0.645886 13.6732 0.601636C13.7006 0.557385 13.719 0.508135 13.7273 0.456733C13.7356 0.40533 13.7336 0.352795 13.7215 0.302163C13.7093 0.251531 13.6873 0.203806 13.6566 0.161748C13.6259 0.11969 13.5872 0.0841315 13.5426 0.0571289C13.4981 0.0301263 13.4487 0.0122147 13.3972 0.00442948C13.3457 -0.00335576 13.2932 -0.000860266 13.2427 0.0117717C13.1922 0.0244037 13.1447 0.0469216 13.1029 0.078024L11.4128 1.31107C11.3708 1.34153 11.3353 1.37995 11.3082 1.42414C11.2811 1.46833 11.263 1.51743 11.2549 1.56863C11.2467 1.61983 11.2488 1.67212 11.2609 1.72252C11.273 1.77292 11.295 1.82045 11.3254 1.86237L12.6458 3.67197C12.708 3.75521 12.8005 3.81055 12.9033 3.82597C13.0061 3.8414 13.1107 3.81566 13.1946 3.75435C13.2785 3.69304 13.3349 3.6011 13.3514 3.49851C13.3679 3.39592 13.3433 3.29096 13.2829 3.20642L12.5085 2.14328C14.842 2.51231 16.9867 3.64661 18.6051 5.36776C20.2235 7.0889 21.2238 9.29922 21.4487 11.651C21.582 13.0357 21.4414 14.4331 21.0347 15.7634C20.628 17.0937 19.9632 18.3309 19.0784 19.4043C18.1936 20.4777 17.106 21.3663 15.8777 22.0193C14.6494 22.6724 13.3046 23.0771 11.9199 23.2104C11.8152 23.2153 11.7168 23.2616 11.6464 23.3391C11.5759 23.4166 11.5391 23.5189 11.544 23.6236C11.549 23.7282 11.5953 23.8266 11.6728 23.8971C11.7503 23.9676 11.8526 24.0044 11.9572 23.9994C11.97 24.0002 11.9828 24.0002 11.9956 23.9994C13.4838 23.8562 14.9292 23.4212 16.2492 22.7193C17.5692 22.0173 18.7381 21.0622 19.6889 19.9084C20.6397 18.7547 21.3539 17.4249 21.7907 15.9951C22.2275 14.5653 22.3783 13.0634 22.2346 11.5753Z" fill="#FFC542"/>
<path d="M12.375 10.8002L5.66251 6.93018" stroke="#FFC542" stroke-linecap="round" stroke-linejoin="round"/>
<path d="M15.75 15.7499V9.74993C15.7497 9.48688 15.6803 9.22853 15.5487 9.0008C15.417 8.77306 15.2278 8.58395 15 8.45243L9.75 5.45243C9.52197 5.32077 9.2633 5.25146 9 5.25146C8.7367 5.25146 8.47803 5.32077 8.25 5.45243L3 8.45243C2.7722 8.58395 2.58299 8.77306 2.45135 9.0008C2.31971 9.22853 2.25027 9.48688 2.25 9.74993V15.7499C2.25027 16.013 2.31971 16.2713 2.45135 16.4991C2.58299 16.7268 2.7722 16.9159 3 17.0474L8.25 20.0474C8.47803 20.1791 8.7367 20.2484 9 20.2484C9.2633 20.2484 9.52197 20.1791 9.75 20.0474L15 17.0474C15.2278 16.9159 15.417 16.7268 15.5487 16.4991C15.6803 16.2713 15.7497 16.013 15.75 15.7499Z" stroke="#FFC542" stroke-linecap="round" stroke-linejoin="round"/>
<path d="M2.4675 9L9 12.75L15.5325 9" stroke="#FFC542" stroke-linecap="round" stroke-linejoin="round"/>
<path d="M9 20.25V12.75" stroke="#FFC542" stroke-linecap="round" stroke-linejoin="round"/>
</svg>
