<svg width="25" height="25" viewBox="0 0 25 25" fill="none" xmlns="http://www.w3.org/2000/svg">
<path d="M21.875 10.4166V8.33331C21.8746 7.96797 21.7782 7.60916 21.5954 7.29286C21.4125 6.97656 21.1497 6.7139 20.8333 6.53123L13.5417 2.36456C13.225 2.18171 12.8657 2.08545 12.5 2.08545C12.1343 2.08545 11.775 2.18171 11.4583 2.36456L4.16667 6.53123C3.85027 6.7139 3.58748 6.97656 3.40465 7.29286C3.22182 7.60916 3.12537 7.96797 3.125 8.33331V16.6666C3.12537 17.032 3.22182 17.3908 3.40465 17.7071C3.58748 18.0234 3.85027 18.2861 4.16667 18.4687L11.4583 22.6354C11.775 22.8182 12.1343 22.9145 12.5 22.9145C12.8657 22.9145 13.225 22.8182 13.5417 22.6354L15.625 21.4479" stroke="#FC5A5A" stroke-width="1.04167" stroke-linecap="round" stroke-linejoin="round"/>
<path d="M17.1875 9.7915L7.86459 4.4165" stroke="#FC5A5A" stroke-width="1.04167" stroke-linecap="round" stroke-linejoin="round"/>
<path d="M3.42709 7.2915L12.5 12.4998L21.5729 7.2915" stroke="#FC5A5A" stroke-width="1.04167" stroke-linecap="round" stroke-linejoin="round"/>
<path d="M12.5 22.9167V12.5" stroke="#FC5A5A" stroke-width="1.04167" stroke-linecap="round" stroke-linejoin="round"/>
<path d="M20.4167 17.4163L19.4167 16.583V15.083" stroke="#FC5A5A" stroke-width="1.04167" stroke-linecap="round" stroke-linejoin="round"/>
<path d="M23.4167 16.4165C23.4167 17.4774 22.9952 18.4948 22.2451 19.2449C21.4949 19.9951 20.4775 20.4165 19.4167 20.4165C18.3558 20.4165 17.3384 19.9951 16.5882 19.2449C15.8381 18.4948 15.4167 17.4774 15.4167 16.4165C15.4167 15.3556 15.8381 14.3382 16.5882 13.5881C17.3384 12.8379 18.3558 12.4165 19.4167 12.4165C20.4775 12.4165 21.4949 12.8379 22.2451 13.5881C22.9952 14.3382 23.4167 15.3556 23.4167 16.4165Z" stroke="#FC5A5A" stroke-width="1.04167" stroke-linecap="round" stroke-linejoin="round"/>
</svg>
